#N canvas 680 161 451 301 12;
#X obj 76 43 inlet;
#X obj 120 128 / 60;
#X obj 76 200 * 1000;
#X obj 76 231 outlet;
#X msg 76 128 1;
#X obj 76 166 /;
#X obj 76 74 t b f;
#X connect 0 0 6 0;
#X connect 1 0 5 1;
#X connect 2 0 3 0;
#X connect 4 0 5 0;
#X connect 5 0 2 0;
#X connect 6 0 4 0;
#X connect 6 1 1 0;
